<?xml version="1.0" standalone="no"?>
<!DOCTYPE svg PUBLIC "-//W3C//DTD SVG 1.1//EN"
  "http://www.w3.org/Graphics/SVG/1.1/DTD/svg11.dtd">
<svg version="1.1" xmlns="http://www.w3.org/2000/svg" xmlns:xlink="http://www.w3.org/1999/xlink" width="1792" height="1063" viewBox="-992 -32 1792 1063" id="ccdiagram"><filter id="grayscale"><feColorMatrix type="matrix" values="0.3333 0.3333 0.3333 0 0 0.3333 0.3333 0.3333 0 0 0.3333 0.3333 0.3333 0 0 0 0 0 1 0"></feColorMatrix></filter><defs><style type="text/css">@import url('https://fonts.googleapis.com/css?family=Open+Sans:400,700|Inconsolata:400');</style></defs><g><g style="pointer-events: none;"><g><pattern id="gridPatternMinor" x="0" y="37" width="128" height="74" patternUnits="userSpaceOnUse"><path d="M 0 0 L 128 74" stroke="#eee" stroke-width="1"></path><path d="M 128 0 L 0 74" stroke="#eee" stroke-width="1"></path></pattern><polygon points="0 0, 768 444, -192 999, -960 555" fill="url(#gridPatternMinor)"></polygon></g><polygon points="-960 555, -960 565, -192 1009, -192 999" stroke-linejoin="round" stroke="#54626f" stroke-width="1" fill="#f9f9f9"></polygon><polygon points="-192 1009, 768 454, 768 444, -192 999" stroke-linejoin="round" stroke="#54626f" stroke-width="1" fill="#e2e2e2"></polygon></g><g pointer-events="auto"><g opacity="1"><g><g><polygon points="32 56, 672 426, 672 463, -96 907, -160 907, -800 537, -800 500, -32 56" fill="#ffffff" stroke-width="2" stroke="#818181"></polygon><polygon points="0 74, 640 444, -128 888, -768 518" fill="#f5b720" stroke-width="0" stroke="#818181"></polygon></g></g></g><g opacity="1"><g><g><polygon points="32 56, 672 426, 672 463, 160 759, 96 759, -544 389, -544 352, -32 56" fill="#ffffff" stroke-width="2" stroke="#818181"></polygon><polygon points="0 74, 640 444, 128 740, -512 370" fill="#8ed1fc" stroke-width="0" stroke="#818181"></polygon></g></g></g><g opacity="1"><g><g><polygon points="0 74, 224 204, -96 389, -320 259" fill="#03a9f4" stroke-width="0" stroke="#818181"></polygon></g></g></g><g opacity="1"><g><g><polygon points="240 213, 464 342, 144 527, -80 398" fill="#03a9f4" stroke-width="0" stroke="#818181"></polygon></g></g></g><g opacity="1"><g><g><polygon points="560 398, 640 444, 448 555, 384 518" fill="#03a9f4" stroke-width="0" stroke="#818181"></polygon></g></g></g></g><g style="pointer-events: none;"><g><pattern id="gridPatternMajor" x="0" y="37" width="128" height="74" patternUnits="userSpaceOnUse"><path d="M 64 0 L 128 37 64 74 0 37 z" stroke="#54626f" stroke-width="1" fill="none"></path></pattern><polygon points="0 0, 768 444, -192 999, -960 555" fill="url(#gridPatternMajor)"></polygon></g></g><g pointer-events="auto"></g><g></g><g pointer-events="auto"></g><g></g><g pointer-events="auto"></g><g pointer-events="none"></g><g pointer-events="auto"><g><g cursor="cell"><line x1="432" y1="361" x2="447" y2="436" stroke="red" stroke-width="8" opacity="0"></line><line x1="432" y1="361" x2="447" y2="436" stroke="#000000" stroke-width="2" stroke-linecap="round"></line><polygon points="448 444, 457 429, 446 434, 434 431, 448 444" stroke-linejoin="round" fill="#000000" stroke="#000000" stroke-width="1"></polygon></g></g><g><g cursor="cell"><line x1="-128" y1="259" x2="-106" y2="246" stroke="red" stroke-width="8" opacity="0"></line><line x1="-128" y1="259" x2="-106" y2="246" stroke="#e91e63" stroke-width="2" stroke-linecap="round"></line><polygon points="-96 241, -122 246, -108 248, -105 255, -96 241" stroke-linejoin="round" fill="#e91e63" stroke="#e91e63" stroke-width="1"></polygon></g></g><g><g cursor="cell"><line x1="512" y1="481" x2="534" y2="468" stroke="red" stroke-width="8" opacity="0"></line><line x1="512" y1="481" x2="534" y2="468" stroke="#000000" stroke-width="2" stroke-linecap="round"></line><polygon points="544 463, 518 468, 532 470, 535 477, 544 463" stroke-linejoin="round" fill="#000000" stroke="#000000" stroke-width="1"></polygon></g></g><g><g cursor="cell"><line x1="-335" y1="675" x2="-110" y2="684" stroke="red" stroke-width="8" opacity="0"></line><line x1="-335" y1="675" x2="-110" y2="684" stroke="#e91e63" stroke-width="2" stroke-linecap="round"></line><polygon points="-96 685, -120 677, -114 684, -121 690, -96 685" stroke-linejoin="round" fill="#e91e63" stroke="#e91e63" stroke-width="1"></polygon></g></g><g><g cursor="cell"><line x1="-335" y1="675" x2="-234" y2="616" stroke="red" stroke-width="8" opacity="0"></line><line x1="-335" y1="675" x2="-234" y2="616" stroke="#e91e63" stroke-width="2" stroke-linecap="round"></line><polygon points="-224 611, -250 616, -236 618, -233 625, -224 611" stroke-linejoin="round" fill="#e91e63" stroke="#e91e63" stroke-width="1"></polygon></g></g><g><g cursor="cell"><line x1="-32" y1="500" x2="-155" y2="322" stroke="red" stroke-width="8" opacity="0"></line><line x1="-32" y1="500" x2="-155" y2="322" stroke="#e91e63" stroke-width="2" stroke-linecap="round"></line><polygon points="-160 315, -162 330, -153 324, -140 325, -160 315" stroke-linejoin="round" fill="#e91e63" stroke="#e91e63" stroke-width="1"></polygon></g></g><g><g cursor="cell"><line x1="-492" y1="765" x2="-426" y2="727" stroke="red" stroke-width="8" opacity="0"></line><line x1="-492" y1="765" x2="-426" y2="727" stroke="#e91e63" stroke-width="2" stroke-linecap="round"></line><polygon points="-416 722, -442 727, -428 729, -425 736, -416 722" stroke-linejoin="round" fill="#e91e63" stroke="#e91e63" stroke-width="1"></polygon></g></g><g><g cursor="cell"><line x1="-16" y1="490" x2="22" y2="468" stroke="red" stroke-width="8" opacity="0"></line><line x1="-16" y1="490" x2="22" y2="468" stroke="#000000" stroke-width="2" stroke-linecap="round"></line><polygon points="32 463, 6 468, 20 470, 23 477, 32 463" stroke-linejoin="round" fill="#000000" stroke="#000000" stroke-width="1"></polygon></g></g><g><g cursor="cell"><line x1="0" y1="185" x2="22" y2="172" stroke="red" stroke-width="8" opacity="0"></line><line x1="0" y1="185" x2="22" y2="172" stroke="#e91e63" stroke-width="2" stroke-linecap="round"></line><polygon points="32 167, 6 172, 20 174, 23 181, 32 167" stroke-linejoin="round" fill="#e91e63" stroke="#e91e63" stroke-width="1"></polygon></g></g><g><g cursor="cell"><line x1="256" y1="333" x2="278" y2="320" stroke="red" stroke-width="8" opacity="0"></line><line x1="256" y1="333" x2="278" y2="320" stroke="#000000" stroke-width="2" stroke-linecap="round"></line><polygon points="288 315, 262 320, 276 322, 279 329, 288 315" stroke-linejoin="round" fill="#000000" stroke="#000000" stroke-width="1"></polygon></g></g><g><g cursor="cell"><line x1="0" y1="185" x2="100" y2="210" stroke="red" stroke-width="8" opacity="0"></line><line x1="0" y1="185" x2="100" y2="210" stroke="#e91e63" stroke-width="2" stroke-linecap="round"></line><polygon points="112 213, 94 201, 96 209, 85 213, 112 213" stroke-linejoin="round" fill="#e91e63" stroke="#e91e63" stroke-width="1"></polygon></g></g><g><g cursor="cell"><line x1="-16" y1="490" x2="-32" y2="500" stroke="red" stroke-width="8" opacity="0"></line><line x1="-16" y1="490" x2="-32" y2="500" stroke="#e91e63" stroke-width="2" stroke-linecap="round"></line></g></g><g><g cursor="cell"><line x1="-335" y1="675" x2="-351" y2="544" stroke="red" stroke-width="8" opacity="0"></line><line x1="-335" y1="675" x2="-351" y2="544" stroke="#e91e63" stroke-width="2" stroke-linecap="round"></line><polygon points="-352 537, -362 551, -351 547, -339 550, -352 537" stroke-linejoin="round" fill="#e91e63" stroke="#e91e63" stroke-width="1"></polygon></g></g><g><g cursor="cell"><line x1="128" y1="407" x2="150" y2="394" stroke="red" stroke-width="8" opacity="0"></line><line x1="128" y1="407" x2="150" y2="394" stroke="#000000" stroke-width="2" stroke-linecap="round"></line><polygon points="160 389, 134 394, 148 396, 151 403, 160 389" stroke-linejoin="round" fill="#000000" stroke="#000000" stroke-width="1"></polygon></g></g><g><g cursor="cell"><line x1="0" y1="185" x2="-43" y2="127" stroke="red" stroke-width="8" opacity="0"></line><line x1="0" y1="185" x2="-43" y2="127" stroke="#e91e63" stroke-width="2" stroke-linecap="round"></line><polygon points="-48 120, -49 136, -41 130, -28 131, -48 120" stroke-linejoin="round" fill="#e91e63" stroke="#e91e63" stroke-width="1"></polygon></g></g><g><g cursor="cell"><line x1="256" y1="333" x2="213" y2="275" stroke="red" stroke-width="8" opacity="0"></line><line x1="256" y1="333" x2="213" y2="275" stroke="#000000" stroke-width="2" stroke-linecap="round"></line><polygon points="208 268, 207 284, 215 278, 228 279, 208 268" stroke-linejoin="round" fill="#000000" stroke="#000000" stroke-width="1"></polygon></g></g><g><g cursor="cell"><line x1="256" y1="333" x2="356" y2="358" stroke="red" stroke-width="8" opacity="0"></line><line x1="256" y1="333" x2="356" y2="358" stroke="#000000" stroke-width="2" stroke-linecap="round"></line><polygon points="368 361, 350 349, 352 357, 341 361, 368 361" stroke-linejoin="round" fill="#000000" stroke="#000000" stroke-width="1"></polygon></g></g></g><g pointer-events="auto"><g opacity="1"><g id="131ffc6c-fddf-4ec7-aa77-dbb2307657f4" transform="translate(0 0)"><g><polygon points="-16 28, 48 65, -16 102, -80 65" fill="#03a9f4"></polygon><polygon points="-80 102, -16 139, -16 102, -80 65" fill="#0286c2" stroke="#c5ecfe"></polygon><polygon points="-16 139, 48 102, 48 65, -16 102" fill="#02638f" stroke="#c5ecfe"></polygon><polygon points="-16 28, -80 65, -80 102, -16 139, 48 102, 48 65" fill="none" stroke="#000000" stroke-width="2"></polygon></g></g></g><g opacity="1"><g id="bcb15882-f184-4b8c-8bcb-374f6b0ef85c" transform="translate(0 0)"><g><polygon points="64 74, 128 111, 64 148, 0 111" fill="#03a9f4"></polygon><polygon points="0 148, 64 185, 64 148, 0 111" fill="#0286c2" stroke="#c5ecfe"></polygon><polygon points="64 185, 128 148, 128 111, 64 148" fill="#02638f" stroke="#c5ecfe"></polygon><polygon points="64 74, 0 111, 0 148, 64 185, 128 148, 128 111" fill="none" stroke="#000000" stroke-width="2"></polygon></g></g></g><g opacity="1"><g id="fd1130a2-22ee-4955-af6c-c939f0482153" transform="translate(0 0)"><g><polygon points="144 120, 208 157, 144 194, 80 157" fill="#03a9f4"></polygon><polygon points="80 194, 144 231, 144 194, 80 157" fill="#0286c2" stroke="#c5ecfe"></polygon><polygon points="144 231, 208 194, 208 157, 144 194" fill="#02638f" stroke="#c5ecfe"></polygon><polygon points="144 120, 80 157, 80 194, 144 231, 208 194, 208 157" fill="none" stroke="#000000" stroke-width="2"></polygon></g></g></g><g opacity="1"><g id="8d9bf409-01f7-4a3a-a521-dea877b2143b" transform="translate(0 0)"><g><polygon points="240 176, 304 213, 240 250, 176 213" fill="#03a9f4"></polygon><polygon points="176 250, 240 287, 240 250, 176 213" fill="#0286c2" stroke="#c5ecfe"></polygon><polygon points="240 287, 304 250, 304 213, 240 250" fill="#02638f" stroke="#c5ecfe"></polygon><polygon points="240 176, 176 213, 176 250, 240 287, 304 250, 304 213" fill="none" stroke="#000000" stroke-width="2"></polygon></g></g></g><g opacity="1"><g id="b8ac9790-6596-4b57-b6dc-85a77e5c8fb8" transform="translate(0 0)"><g><polygon points="320 222, 384 259, 320 296, 256 259" fill="#03a9f4"></polygon><polygon points="256 296, 320 333, 320 296, 256 259" fill="#0286c2" stroke="#c5ecfe"></polygon><polygon points="320 333, 384 296, 384 259, 320 296" fill="#02638f" stroke="#c5ecfe"></polygon><polygon points="320 222, 256 259, 256 296, 320 333, 384 296, 384 259" fill="none" stroke="#000000" stroke-width="2"></polygon></g></g></g><g opacity="1"><g id="db779c8a-1b7b-4026-85a9-7b829c77efec" transform="translate(0 0)"><g><polygon points="400 268, 464 305, 400 342, 336 305" fill="#03a9f4"></polygon><polygon points="336 342, 400 379, 400 342, 336 305" fill="#0286c2" stroke="#c5ecfe"></polygon><polygon points="400 379, 464 342, 464 305, 400 342" fill="#02638f" stroke="#c5ecfe"></polygon><polygon points="400 268, 336 305, 336 342, 400 379, 464 342, 464 305" fill="none" stroke="#000000" stroke-width="2"></polygon></g></g></g><g opacity="1"><g id="bc8ca087-e2af-4910-888b-bab749f3393b" transform="translate(0 0)"><g><polygon points="576 370, 640 407, 576 444, 512 407" fill="#03a9f4"></polygon><polygon points="512 444, 576 481, 576 444, 512 407" fill="#0286c2" stroke="#c5ecfe"></polygon><polygon points="576 481, 640 444, 640 407, 576 444" fill="#02638f" stroke="#c5ecfe"></polygon><polygon points="576 370, 512 407, 512 444, 576 481, 640 444, 640 407" fill="none" stroke="#000000" stroke-width="2"></polygon></g></g></g><g opacity="1"><g id="2048bb16-3baf-4a8a-8094-79d0d01e01e0" transform="translate(0 0)"><g><polygon points="-64 148, 0 185, -64 222, -128 185" fill="#009688"></polygon><polygon points="-128 222, -64 259, -64 222, -128 185" fill="#00635a" stroke="#63fff0"></polygon><polygon points="-64 259, 0 222, 0 185, -64 222" fill="#00302c" stroke="#63fff0"></polygon><polygon points="-64 148, -128 185, -128 222, -64 259, 0 222, 0 185" fill="none" stroke="#000000" stroke-width="2"></polygon></g></g></g><g opacity="1"><g id="cd342b6a-4a62-4b47-ae0f-485fe487e0d7" transform="translate(0 0)"><g><polygon points="192 296, 256 333, 192 370, 128 333" fill="#009688"></polygon><polygon points="128 370, 192 407, 192 370, 128 333" fill="#00635a" stroke="#63fff0"></polygon><polygon points="192 407, 256 370, 256 333, 192 370" fill="#00302c" stroke="#63fff0"></polygon><polygon points="192 296, 128 333, 128 370, 192 407, 256 370, 256 333" fill="none" stroke="#000000" stroke-width="2"></polygon></g></g></g><g opacity="1"><g id="41ee5ef5-5759-4d6d-9913-44db2c213e19" transform="translate(0 0)"><g><polygon points="448 444, 512 481, 448 518, 384 481" fill="#009688"></polygon><polygon points="384 518, 448 555, 448 518, 384 481" fill="#00635a" stroke="#63fff0"></polygon><polygon points="448 555, 512 518, 512 481, 448 518" fill="#00302c" stroke="#63fff0"></polygon><polygon points="448 444, 384 481, 384 518, 448 555, 512 518, 512 481" fill="none" stroke="#000000" stroke-width="2"></polygon></g></g></g><g opacity="1"><g id="85824edc-8235-4d09-9481-816ced185226" transform="translate(0 0)"><g><polygon points="-192 222, -128 259, -192 296, -256 259" fill="#3f51b5"></polygon><polygon points="-256 296, -192 333, -192 296, -256 259" fill="#32408f" stroke="#d1d6ef"></polygon><polygon points="-192 333, -128 296, -128 259, -192 296" fill="#252f69" stroke="#d1d6ef"></polygon><polygon points="-192 222, -256 259, -256 296, -192 333, -128 296, -128 259" fill="none" stroke="#000000" stroke-width="2"></polygon></g></g></g><g opacity="1"><g id="b632d0ba-394f-4afa-b079-ade94a937395" transform="translate(0 0)"><g><polygon points="64 370, 128 407, 64 444, 0 407" fill="#3f51b5"></polygon><polygon points="0 444, 64 481, 64 444, 0 407" fill="#32408f" stroke="#d1d6ef"></polygon><polygon points="64 481, 128 444, 128 407, 64 444" fill="#252f69" stroke="#d1d6ef"></polygon><polygon points="64 370, 0 407, 0 444, 64 481, 128 444, 128 407" fill="none" stroke="#000000" stroke-width="2"></polygon></g></g></g><g opacity="1"><g id="dd7d858c-05a3-4f8c-bce1-bd6aeed8dc38" transform="translate(0 0)"><g><polygon points="-208 379, 112 564, 48 601, -272 416" fill="#3f51b5"></polygon><polygon points="-272 453, 48 638, 48 601, -272 416" fill="#32408f" stroke="#d1d6ef"></polygon><polygon points="48 638, 112 601, 112 564, 48 601" fill="#252f69" stroke="#d1d6ef"></polygon><polygon points="-208 379, -272 416, -272 453, 48 638, 112 601, 112 564" fill="none" stroke="#000000" stroke-width="2"></polygon></g></g></g><g opacity="1"><g id="767b4dab-7f83-44bd-a14d-8b13a8414613" transform="translate(0 0)"><svg x="-384" y="444" height="111" width="128" fill-rule="evenodd"><path d="M64 74v37l64-37V37L64 74z" fill="#b8b8bb"></path><path d="M0 37v37l64 37V74L0 37z" fill="#d2d2d4"></path><path d="M0 37L64 0l64 37-64 37L0 37z" fill="#ececed"></path><path d="M64 73.407l62.111-35.86.514.889-62.487 36.078h-.276L.743 38.072l.514-.89L64 73.407z" fill="#83838a"></path><path d="M63.486 74h1.027v36h-1.027z" fill="#83838a"></path><path d="M128 37v37l-64 37L0 74V37L64 0l64 37zM2.054 38.185v34.63L64 108.627l61.946-35.812v-34.63L64 2.373 2.054 38.185z" fill="#000000"></path></svg><svg x="-326" y="463" width="54" height="36" style="overflow: visible; cursor: default;"><rect transform="matrix(0.707 0.409 -0.707 0.409 0 0)" width="54" height="36" rx="5" ry="5" fill="#4286c5"></rect><text transform="matrix(0.707 0.409 -0.707 0.409 0 0)" font-family="Open Sans" text-anchor="middle" x="50%" font-weight="normal" font-size="20pt" y="80%" fill="#ffffff"><tspan>T2</tspan></text></svg></g></g><g opacity="1"><g id="8bf99edf-3176-4e9b-a1bf-859086f97c52" transform="translate(0 0)"><svg x="-256" y="518" height="111" width="128" fill-rule="evenodd"><path d="M64 74v37l64-37V37L64 74z" fill="#b8b8bb"></path><path d="M0 37v37l64 37V74L0 37z" fill="#d2d2d4"></path><path d="M0 37L64 0l64 37-64 37L0 37z" fill="#ececed"></path><path d="M64 73.407l62.111-35.86.514.889-62.487 36.078h-.276L.743 38.072l.514-.89L64 73.407z" fill="#83838a"></path><path d="M63.486 74h1.027v36h-1.027z" fill="#83838a"></path><path d="M128 37v37l-64 37L0 74V37L64 0l64 37zM2.054 38.185v34.63L64 108.627l61.946-35.812v-34.63L64 2.373 2.054 38.185z" fill="#000000"></path></svg><svg x="-198" y="537" width="54" height="36" style="overflow: visible; cursor: default;"><rect transform="matrix(0.707 0.409 -0.707 0.409 0 0)" width="54" height="36" rx="5" ry="5" fill="#4286c5"></rect><text transform="matrix(0.707 0.409 -0.707 0.409 0 0)" font-family="Open Sans" text-anchor="middle" x="50%" font-weight="normal" font-size="20pt" y="80%" fill="#ffffff"><tspan>M3</tspan></text></svg></g></g><g opacity="1"><g id="d7a90298-f1bc-4075-b801-104a90c124a1" transform="translate(0 0)"><svg x="-128" y="592" height="111" width="128" fill-rule="evenodd"><path d="M64 74v37l64-37V37L64 74z" fill="#b8b8bb"></path><path d="M0 37v37l64 37V74L0 37z" fill="#d2d2d4"></path><path d="M0 37L64 0l64 37-64 37L0 37z" fill="#ececed"></path><path d="M64 73.407l62.111-35.86.514.889-62.487 36.078h-.276L.743 38.072l.514-.89L64 73.407z" fill="#83838a"></path><path d="M63.486 74h1.027v36h-1.027z" fill="#83838a"></path><path d="M128 37v37l-64 37L0 74V37L64 0l64 37zM2.054 38.185v34.63L64 108.627l61.946-35.812v-34.63L64 2.373 2.054 38.185z" fill="#000000"></path></svg><svg x="-70" y="611" width="54" height="36" style="overflow: visible; cursor: default;"><rect transform="matrix(0.707 0.409 -0.707 0.409 0 0)" width="54" height="36" rx="5" ry="5" fill="#4286c5"></rect><text transform="matrix(0.707 0.409 -0.707 0.409 0 0)" font-family="Open Sans" text-anchor="middle" x="50%" font-weight="normal" font-size="20pt" y="80%" fill="#ffffff"><tspan>T2</tspan></text></svg></g></g><g opacity="1"><g id="4fa727c9-36b9-4773-bf99-258500555073" transform="translate(0 0)"><svg x="-432" y="638" height="94" width="97" fill-rule="evenodd"><path d="M0 18.6v18.6l32.333 18.6h32.334L97 37.2V18.6L64.667 0H32.333L0 18.6z" fill="#ececed"></path><path d="M64.667 55.8L97 37.2v37.2L64.667 93V55.8z" fill="#b8b8bb"></path><path d="M32.333 55.8h32.334V93H32.333V55.8zM0 37.2v37.2L32.333 93V55.8L0 37.2z" fill="#d2d2d4"></path><g fill="none" stroke="#83838a" stroke-width="1.04"><path d="M.955 37.877L32.333 55.8h32.334l31.378-17.923M32.333 55.8v36.211M64.667 55.8v36.574"></path></g><path d="M97 18.6v55.8L64.667 93H32.333L0 74.4V18.6L32.333 0h32.334L97 18.6zM32.865 1.989L1.989 19.751v53.498l30.876 17.762h31.27l30.876-17.762V19.751L64.135 1.989h-31.27z" fill="#000000"></path><path d="M69.912 15.583c11.818 6.798 11.818 17.836 0 24.635-11.817 6.798-31.007 6.798-42.824 0-11.818-6.799-11.818-17.837 0-24.635 11.817-6.799 31.007-6.799 42.824 0z" fill="#4286c5"></path><path d="M49.584 14.774c1.824 1.049 1.824 2.753 0 3.802-1.824 1.05-4.786 1.05-6.61 0-1.824-1.049-1.824-2.753 0-3.802 1.824-1.05 4.786-1.05 6.61 0zM60.451 21.025c1.825 1.049 1.825 2.753 0 3.803-1.824 1.049-4.786 1.049-6.61 0-1.824-1.05-1.824-2.754 0-3.803s4.786-1.049 6.61 0zM71.319 27.276c1.824 1.05 1.824 2.754 0 3.803-1.825 1.049-4.787 1.049-6.611 0-1.824-1.049-1.824-2.753 0-3.803 1.824-1.049 4.786-1.049 6.611 0zM38.497 33.654c1.824 1.05 1.824 2.754 0 3.803-1.825 1.05-4.787 1.05-6.611 0-1.824-1.049-1.824-2.753 0-3.803 1.824-1.049 4.786-1.049 6.611 0z" fill="#ffffff"></path><path d="M47.458 15.878c.453.26.393.717-.133 1.02-.526.303-1.32.337-1.773.076-.452-.26-.392-.717.133-1.019.526-.303 1.321-.337 1.773-.077z" fill="#ffffff"></path><path d="M48.111 15.621c1.012.582 1.012 1.526 0 2.108-1.011.582-2.653.582-3.664 0-1.012-.582-1.012-1.526 0-2.108 1.011-.582 2.653-.582 3.664 0zM58.978 21.872c1.012.582 1.012 1.527 0 2.108-1.011.582-2.653.582-3.664 0-1.012-.581-1.012-1.526 0-2.108 1.011-.581 2.653-.581 3.664 0zM69.846 28.124c1.011.581 1.011 1.526 0 2.108-1.012.582-2.654.582-3.665 0-1.011-.582-1.011-1.527 0-2.108 1.011-.582 2.653-.582 3.665 0z" fill="#4286c5"></path><path d="M37.024 34.502c1.011.582 1.011 1.526 0 2.108-1.012.582-2.654.582-3.665 0-1.011-.582-1.011-1.526 0-2.108 1.011-.582 2.653-.582 3.665 0z" fill="#ffffff"></path><g fill="#ffffff"><path d="M52.301 25.172L37.719 33.56l.482.834 14.584-8.388-.484-.834z"></path><path d="M46.993 26.089l6.654-1.146-4.324 5.168c.189-1.691-.757-3.313-2.33-4.022z" stroke="#ffffff" stroke-width=".36"></path></g><g fill="#ffffff"><path d="M43.488 19.937l-6.057 13.797.886.387 6.056-13.798-.885-.386z"></path><path d="M39.76 23.812l4.676-4.854-.405 6.716c-.855-1.474-2.582-2.221-4.271-1.862z" stroke="#ffffff" stroke-width=".36"></path></g><g fill="#ffffff"><path d="M61.953 30.061l-23.985 3.483.14.955 23.985-3.486-.14-.952z"></path><path d="M56.68 28.957l6.608 1.387-5.936 3.209c.804-1.503.526-3.358-.672-4.596h0z" stroke="#ffffff" stroke-width=".36"></path></g><path d="M37.96 33.977l13.12-7.547M37.873 33.927l5.792-13.134M38.037 34.022l22.478-3.281" fill="#ffffff" stroke="#ffffff" stroke-width="1.93"></path></svg></g></g><g opacity="1"><g id="2685515d-0fdf-4c31-b26d-7cf5ad8c321d" transform="translate(0 0)"><svg x="-552" y="700" height="95.068" width="63" viewBox="0 0 16.669 25.153"><path d="M16.668 22.903q0 1.64-.864 2.091-.865.451-2.297-.376L3.161 18.645q-1.433-.827-2.297-2.276Q.001 14.921 0 13.28q0-.723.042-1.39.042-.666.166-1.394.124-.727.313-1.302.19-.575.51-1.039.319-.464.733-.683.414-.22 1.012-.147.598.073 1.32.49.107.06.497.58.391.52.882 1.165.491.646 1.279 1.394.788.75 1.58 1.207.793.458 1.58.618.788.161 1.28.083.49-.079.881-.147.39-.069.497-.007.722.416 1.32 1.035.598.619 1.013 1.315.414.697.734 1.531t.509 1.627q.19.793.313 1.664.124.872.166 1.586.042.713.042 1.438zM12.88 8.51q0 2.173-1.332 2.942-1.332.769-3.214-.318-1.882-1.086-3.214-3.393Q3.79 5.434 3.79 3.26q0-2.173 1.331-2.942 1.332-.77 3.214.317t3.214 3.394q1.332 2.306 1.332 4.48z" fill="#000" stroke="#000000" stroke-width=".268"></path></svg></g></g></g><g pointer-events="auto"></g><g pointer-events="auto"></g><g pointer-events="auto"><g opacity="1"><g id="34e3c7b8-71a7-4231-8aab-5f31312f0f64" transform="translate(0 0)"><svg x="-256" y="666" overflow="visible"><text stroke="#000000" stroke-width="2" font-family="Open Sans" y="36.5" font-size="25pt" fill="#ffffff" font-weight="bold" transform="matrix(0.707 0.409 -0.707 0.409 0 0)" xml:space="preserve"><tspan x="8" dy="0">Elastic Load</tspan><tspan x="8" dy="1.1em">Balancing</tspan></text><text font-family="Open Sans" y="36.5" font-size="25pt" fill="#ffffff" font-weight="bold" transform="matrix(0.707 0.409 -0.707 0.409 0 0)" xml:space="preserve"><tspan x="8" dy="0">Elastic Load</tspan><tspan x="8" dy="1.1em">Balancing</tspan></text></svg></g></g><g opacity="1"><g id="50348918-a984-454b-b533-3e0c2cbe6af8" transform="translate(0 0)"><svg x="128" y="130" overflow="visible"><text stroke="#000000" stroke-width="2" font-family="Open Sans" y="36.5" font-size="25pt" fill="#ffffff" font-weight="bold" transform="matrix(0.707 0.409 -0.707 0.409 0 0)" xml:space="preserve"><tspan x="8" dy="0">Pod</tspan></text><text font-family="Open Sans" y="36.5" font-size="25pt" fill="#ffffff" font-weight="bold" transform="matrix(0.707 0.409 -0.707 0.409 0 0)" xml:space="preserve"><tspan x="8" dy="0">Pod</tspan></text></svg></g></g><g opacity="1"><g id="cceaac41-e16d-4be0-b06d-a65362b8f06e" transform="translate(0 0)"><svg x="224" y="185" overflow="visible"><text stroke="#000000" stroke-width="2" font-family="Open Sans" y="36.5" font-size="25pt" fill="#ffffff" font-weight="bold" transform="matrix(0.707 0.409 -0.707 0.409 0 0)" xml:space="preserve"><tspan x="8" dy="0">Pod</tspan></text><text font-family="Open Sans" y="36.5" font-size="25pt" fill="#ffffff" font-weight="bold" transform="matrix(0.707 0.409 -0.707 0.409 0 0)" xml:space="preserve"><tspan x="8" dy="0">Pod</tspan></text></svg></g></g><g opacity="1"><g id="152a70b9-d7c7-438b-9817-d7ab46b9e0f7" transform="translate(0 0)"><svg x="304" y="231" overflow="visible"><text stroke="#000000" stroke-width="2" font-family="Open Sans" y="36.5" font-size="25pt" fill="#ffffff" font-weight="bold" transform="matrix(0.707 0.409 -0.707 0.409 0 0)" xml:space="preserve"><tspan x="8" dy="0">Pod</tspan></text><text font-family="Open Sans" y="36.5" font-size="25pt" fill="#ffffff" font-weight="bold" transform="matrix(0.707 0.409 -0.707 0.409 0 0)" xml:space="preserve"><tspan x="8" dy="0">Pod</tspan></text></svg></g></g><g opacity="1"><g id="45e76ff5-50bf-45b7-b47b-efa97a354137" transform="translate(0 0)"><svg x="384" y="278" overflow="visible"><text stroke="#000000" stroke-width="2" font-family="Open Sans" y="36.5" font-size="25pt" fill="#ffffff" font-weight="bold" transform="matrix(0.707 0.409 -0.707 0.409 0 0)" xml:space="preserve"><tspan x="8" dy="0">Pod</tspan></text><text font-family="Open Sans" y="36.5" font-size="25pt" fill="#ffffff" font-weight="bold" transform="matrix(0.707 0.409 -0.707 0.409 0 0)" xml:space="preserve"><tspan x="8" dy="0">Pod</tspan></text></svg></g></g><g opacity="1"><g id="418adeee-635d-49e8-b298-12ab89ea5655" transform="translate(0 0)"><svg x="-96" y="148" overflow="visible"><text stroke="#000000" stroke-width="2" font-family="Open Sans" y="36.5" font-size="25pt" fill="#ffffff" font-weight="bold" transform="matrix(0.707 0.409 -0.707 0.409 0 0)" xml:space="preserve"><tspan x="8" dy="0">Service</tspan></text><text font-family="Open Sans" y="36.5" font-size="25pt" fill="#ffffff" font-weight="bold" transform="matrix(0.707 0.409 -0.707 0.409 0 0)" xml:space="preserve"><tspan x="8" dy="0">Service</tspan></text></svg></g></g><g opacity="1"><g id="74e7acb8-6b2f-4424-859a-f2e70aa1d84d" transform="translate(0 0)"><svg x="160" y="296" overflow="visible"><text stroke="#000000" stroke-width="2" font-family="Open Sans" y="36.5" font-size="25pt" fill="#ffffff" font-weight="bold" transform="matrix(0.707 0.409 -0.707 0.409 0 0)" xml:space="preserve"><tspan x="8" dy="0">Service</tspan></text><text font-family="Open Sans" y="36.5" font-size="25pt" fill="#ffffff" font-weight="bold" transform="matrix(0.707 0.409 -0.707 0.409 0 0)" xml:space="preserve"><tspan x="8" dy="0">Service</tspan></text></svg></g></g><g opacity="1"><g id="964bfcec-9ed9-4f2e-b698-f8c9df23fdc3" transform="translate(0 0)"><svg x="48" y="83" overflow="visible"><text stroke="#000000" stroke-width="2" font-family="Open Sans" y="36.5" font-size="25pt" fill="#ffffff" font-weight="bold" transform="matrix(0.707 0.409 -0.707 0.409 0 0)" xml:space="preserve"><tspan x="8" dy="0">Pod</tspan></text><text font-family="Open Sans" y="36.5" font-size="25pt" fill="#ffffff" font-weight="bold" transform="matrix(0.707 0.409 -0.707 0.409 0 0)" xml:space="preserve"><tspan x="8" dy="0">Pod</tspan></text></svg></g></g><g opacity="1"><g id="bc14211b-23dd-42c3-b68e-bf6a3dca52fe" transform="translate(0 0)"><svg x="-32" y="37" overflow="visible"><text stroke="#000000" stroke-width="2" font-family="Open Sans" y="36.5" font-size="25pt" fill="#ffffff" font-weight="bold" transform="matrix(0.707 0.409 -0.707 0.409 0 0)" xml:space="preserve"><tspan x="8" dy="0">Pod</tspan></text><text font-family="Open Sans" y="36.5" font-size="25pt" fill="#ffffff" font-weight="bold" transform="matrix(0.707 0.409 -0.707 0.409 0 0)" xml:space="preserve"><tspan x="8" dy="0">Pod</tspan></text></svg></g></g><g opacity="1"><g id="65d81a1a-324c-4736-a24a-9e34bed917f0" transform="translate(0 0)"><svg x="416" y="444" overflow="visible"><text stroke="#000000" stroke-width="2" font-family="Open Sans" y="36.5" font-size="25pt" fill="#ffffff" font-weight="bold" transform="matrix(0.707 0.409 -0.707 0.409 0 0)" xml:space="preserve"><tspan x="8" dy="0">Service</tspan></text><text font-family="Open Sans" y="36.5" font-size="25pt" fill="#ffffff" font-weight="bold" transform="matrix(0.707 0.409 -0.707 0.409 0 0)" xml:space="preserve"><tspan x="8" dy="0">Service</tspan></text></svg></g></g><g opacity="1"><g id="3ecae435-93f0-444e-aed4-3927262f7ddc" transform="translate(0 0)"><svg x="560" y="379" overflow="visible"><text stroke="#000000" stroke-width="2" font-family="Open Sans" y="36.5" font-size="25pt" fill="#ffffff" font-weight="bold" transform="matrix(0.707 0.409 -0.707 0.409 0 0)" xml:space="preserve"><tspan x="8" dy="0">Pod</tspan></text><text font-family="Open Sans" y="36.5" font-size="25pt" fill="#ffffff" font-weight="bold" transform="matrix(0.707 0.409 -0.707 0.409 0 0)" xml:space="preserve"><tspan x="8" dy="0">Pod</tspan></text></svg></g></g><g opacity="1"><g id="aca8440e-5c09-4a6b-82f3-6b389f0b0773" transform="translate(0 0)"><svg x="32" y="370" overflow="visible"><text stroke="#000000" stroke-width="2" font-family="Open Sans" y="36.5" font-size="25pt" fill="#ffffff" font-weight="bold" transform="matrix(0.707 0.409 -0.707 0.409 0 0)" xml:space="preserve"><tspan x="8" dy="0">Ingress</tspan></text><text font-family="Open Sans" y="36.5" font-size="25pt" fill="#ffffff" font-weight="bold" transform="matrix(0.707 0.409 -0.707 0.409 0 0)" xml:space="preserve"><tspan x="8" dy="0">Ingress</tspan></text></svg></g></g><g opacity="1"><g id="ba1989b2-d98d-4939-9a6f-2f4d088bd015" transform="translate(0 0)"><svg x="-224" y="222" overflow="visible"><text stroke="#000000" stroke-width="2" font-family="Open Sans" y="36.5" font-size="25pt" fill="#ffffff" font-weight="bold" transform="matrix(0.707 0.409 -0.707 0.409 0 0)" xml:space="preserve"><tspan x="8" dy="0">Ingress</tspan></text><text font-family="Open Sans" y="36.5" font-size="25pt" fill="#ffffff" font-weight="bold" transform="matrix(0.707 0.409 -0.707 0.409 0 0)" xml:space="preserve"><tspan x="8" dy="0">Ingress</tspan></text></svg></g></g><g opacity="1"><g id="b0c7a459-cdc1-4fd4-8061-64e19c05a02e" transform="translate(0 0)"><svg x="-176" y="416" overflow="visible"><text stroke="#000000" stroke-width="2" font-family="Open Sans" y="36.5" font-size="25pt" fill="#ffffff" font-weight="bold" transform="matrix(0.707 0.409 -0.707 0.409 0 0)" xml:space="preserve"><tspan x="8" dy="0">Ingress  Controller</tspan></text><text font-family="Open Sans" y="36.5" font-size="25pt" fill="#ffffff" font-weight="bold" transform="matrix(0.707 0.409 -0.707 0.409 0 0)" xml:space="preserve"><tspan x="8" dy="0">Ingress  Controller</tspan></text></svg></g></g><g opacity="1"><g id="f66fff46-c521-48d1-b4c5-7679e7141b16" transform="translate(0 0)"><svg x="0" y="0" overflow="visible"><text stroke="#ffffff" stroke-width="4" font-family="Open Sans" y="36.5" font-size="25pt" fill="#000000" font-weight="bold" transform="matrix(0.707, 0.409, 0, 0.816, 0, 0)" xml:space="preserve"><tspan x="8" dy="0">Xebicon-frontend</tspan></text><text font-family="Open Sans" y="36.5" font-size="25pt" fill="#000000" font-weight="bold" transform="matrix(0.707, 0.409, 0, 0.816, 0, 0)" xml:space="preserve"><tspan x="8" dy="0">Xebicon-frontend</tspan></text></svg></g></g><g opacity="1"><g id="c6cf7e47-e618-4b2d-af27-010e2b23838d" transform="translate(0 0)"><svg x="240" y="139" overflow="visible"><text stroke="#ffffff" stroke-width="4" font-family="Open Sans" y="36.5" font-size="25pt" fill="#000000" font-weight="bold" transform="matrix(0.707, 0.409, 0, 0.816, 0, 0)" xml:space="preserve"><tspan x="8" dy="0">Xebicon-backend</tspan></text><text font-family="Open Sans" y="36.5" font-size="25pt" fill="#000000" font-weight="bold" transform="matrix(0.707, 0.409, 0, 0.816, 0, 0)" xml:space="preserve"><tspan x="8" dy="0">Xebicon-backend</tspan></text></svg></g></g><g opacity="1"><g id="fb587423-5f25-485f-826a-254b23decaf4" transform="translate(0 0)"><svg x="480" y="278" overflow="visible"><text stroke="#ffffff" stroke-width="4" font-family="Open Sans" y="36.5" font-size="25pt" fill="#000000" font-weight="bold" transform="matrix(0.707, 0.409, 0, 0.816, 0, 0)" xml:space="preserve"><tspan x="8" dy="0">Xebicon-database</tspan></text><text font-family="Open Sans" y="36.5" font-size="25pt" fill="#000000" font-weight="bold" transform="matrix(0.707, 0.409, 0, 0.816, 0, 0)" xml:space="preserve"><tspan x="8" dy="0">Xebicon-database</tspan></text></svg></g></g><g opacity="1"><g id="d8fd0d39-14b8-45e4-8830-47920aa3d21a" transform="translate(0 0)"><svg x="-752" y="805" overflow="visible"><text stroke="#ffffff" stroke-width="4" font-family="Open Sans" y="30.799999999999997" font-size="20pt" fill="#000000" font-weight="bold" transform="" xml:space="preserve"><tspan x="8" dy="0">http://myCluster/xebicon-frontend</tspan></text><text font-family="Open Sans" y="30.799999999999997" font-size="20pt" fill="#000000" font-weight="bold" transform="" xml:space="preserve"><tspan x="8" dy="0">http://myCluster/xebicon-frontend</tspan></text></svg></g></g><g opacity="1"><g id="822d7222-3ce3-4f03-b683-14ddb91ff199" transform="translate(0 0)"><svg x="-736" y="500" overflow="visible"><text stroke="#000000" stroke-width="2" font-family="Open Sans" y="36.5" font-size="25pt" fill="#ffffff" font-weight="bold" transform="matrix(0.707 0.409 -0.707 0.409 0 0)" xml:space="preserve"><tspan x="8" dy="0">AWS</tspan></text><text font-family="Open Sans" y="36.5" font-size="25pt" fill="#ffffff" font-weight="bold" transform="matrix(0.707 0.409 -0.707 0.409 0 0)" xml:space="preserve"><tspan x="8" dy="0">AWS</tspan></text></svg></g></g><g opacity="1"><g id="a4855a5d-2d13-4cec-af16-646d1eb77226" transform="translate(0 0)"><svg x="-480" y="352" overflow="visible"><text stroke="#000000" stroke-width="2" font-family="Open Sans" y="36.5" font-size="25pt" fill="#ffffff" font-weight="bold" transform="matrix(0.707 0.409 -0.707 0.409 0 0)" xml:space="preserve"><tspan x="8" dy="0">Kubernetes</tspan></text><text font-family="Open Sans" y="36.5" font-size="25pt" fill="#ffffff" font-weight="bold" transform="matrix(0.707 0.409 -0.707 0.409 0 0)" xml:space="preserve"><tspan x="8" dy="0">Kubernetes</tspan></text></svg></g></g></g><g></g></g></svg>